<?xml version="1.0" encoding="utf-8"?>
<!-- Generator: Adobe Illustrator 25.4.1, SVG Export Plug-In . SVG Version: 6.00 Build 0)  -->
<svg version="1.1" id="Capa_1" xmlns="http://www.w3.org/2000/svg" xmlns:xlink="http://www.w3.org/1999/xlink" x="0px" y="0px"
	 viewBox="0 0 50 50" style="enable-background:new 0 0 50 50;" xml:space="preserve">
<style type="text/css">
	.st0{fill:#ED1C24;}
</style>
<g>
	<g>
		<path class="st0" d="M35.9,36.1c-3.8,3.1-7.7,6.3-10.1,9.8c-0.2,0.3-0.5,0.4-0.8,0.4c-0.3,0-0.6-0.2-0.8-0.4
			c-2.4-3.5-6.3-6.7-10.1-9.8C7,30.2-0.3,24.2,0.6,15.1c0.3-3.3,2-6.4,4.6-8.4c2.5-1.9,5.6-3,8.7-3c2.9-0.1,5.6,0.9,7.8,2.7
			c1.5,1.3,2.6,2.9,3.2,4.7c0.7-1.8,1.8-3.4,3.2-4.7c2.2-1.8,4.9-2.8,7.8-2.7h0.1c3.2,0,6.2,1.1,8.7,3c2.6,2,4.3,5.1,4.6,8.4
			C50.3,24.2,43,30.2,35.9,36.1L35.9,36.1z"/>
	</g>
</g>
</svg>
