<?xml version="1.0" encoding="utf-8"?>
<!-- Generator: Adobe Illustrator 25.4.1, SVG Export Plug-In . SVG Version: 6.00 Build 0)  -->
<svg version="1.1" id="Capa_1" xmlns="http://www.w3.org/2000/svg" xmlns:xlink="http://www.w3.org/1999/xlink" x="0px" y="0px"
	 viewBox="0 0 50 50" style="enable-background:new 0 0 50 50;" xml:space="preserve">
<style type="text/css">
	.st0{fill:#FFFFFF;}
</style>
<g>
	<g>
		<path class="st0" d="M25,0.5c-6.5,0-12.7,2.6-17.3,7.2C3.1,12.3,0.5,18.5,0.5,25s2.6,12.7,7.2,17.3c4.6,4.6,10.8,7.2,17.3,7.2
			c4.3,0,8.5-1.1,12.2-3.3c3.7-2.2,6.8-5.2,9-9c2.2-3.7,3.3-7.9,3.3-12.2c0-6.5-2.6-12.7-7.2-17.3C37.7,3.1,31.5,0.5,25,0.5z
			 M37.2,25c0,0.5-0.2,1-0.6,1.4l-8.1,8c-0.5,0.5-1.2,0.7-1.9,0.5c-0.7-0.2-1.2-0.7-1.4-1.4c-0.2-0.7,0-1.4,0.5-1.9l4.7-4.7H14.7
			c-0.7,0-1.3-0.4-1.7-1c-0.3-0.6-0.3-1.4,0-2c0.4-0.6,1-1,1.7-1h15.9l-4.8-4.8c-0.5-0.5-0.7-1.2-0.5-1.9c0.2-0.7,0.7-1.2,1.4-1.4
			c0.7-0.2,1.4,0,1.9,0.5l8.1,8C37,23.9,37.3,24.4,37.2,25L37.2,25L37.2,25z"/>
	</g>
</g>
</svg>
