<?xml version="1.0" encoding="utf-8"?>
<!-- Generator: Adobe Illustrator 25.4.1, SVG Export Plug-In . SVG Version: 6.00 Build 0)  -->
<svg version="1.1" id="Capa_1" xmlns="http://www.w3.org/2000/svg" xmlns:xlink="http://www.w3.org/1999/xlink" x="0px" y="0px"
	 viewBox="0 0 70 70" style="enable-background:new 0 0 70 70;" xml:space="preserve">
<style type="text/css">
	.st0{display:none;}
	.st1{display:inline;fill:url(#SVGID_1_);}
	.st2{display:inline;fill:#FFFFFF;}
	.st3{display:inline;fill:url(#SVGID_00000117638242998198153850000006522395291289532060_);}
	.st4{display:inline;}
	.st5{fill-rule:evenodd;clip-rule:evenodd;fill:#FFFFFF;}
	.st6{display:inline;fill:url(#SVGID_00000007402117643225697670000011332054778844575905_);}
	.st7{display:inline;fill:url(#SVGID_00000026871505133192703800000016386175361327390869_);}
	.st8{display:inline;fill:url(#SVGID_00000142890872926887609650000018149942942190705285_);}
	.st9{display:inline;fill-rule:evenodd;clip-rule:evenodd;fill:#FFFFFF;}
	.st10{fill:url(#SVGID_00000039813741018136052080000007616318041083226033_);}
	.st11{fill:#FFFFFF;}
	.st12{display:inline;fill:url(#SVGID_00000033344982281401434380000010031136925817136009_);}
</style>
<g class="st0">
	<linearGradient id="SVGID_1_" gradientUnits="userSpaceOnUse" x1="35" y1="3.2763" x2="35" y2="66.7237">
		<stop  offset="0" style="stop-color:#F64480"/>
		<stop  offset="1" style="stop-color:#FD7673"/>
	</linearGradient>
	<circle class="st1" cx="35" cy="35" r="31.7"/>
	<path class="st2" d="M39,20.6c-0.2,0-0.4,0.2-0.5,0.3l-12,15.7c-0.2,0.2-0.2,0.6-0.1,0.9c0.1,0.3,0.4,0.5,0.7,0.5h7.7L33,49.4v0
		c-0.1,0.4,0.1,0.8,0.5,0.9c0.4,0.2,0.8,0,1-0.3L46,34.3h0c0.2-0.3,0.2-0.6,0.1-0.9c-0.1-0.3-0.4-0.5-0.7-0.5H38l1.9-11.4h0
		c0-0.3,0-0.5-0.2-0.7C39.5,20.6,39.3,20.6,39,20.6L39,20.6z M37.8,24.6l-1.5,9.1c0,0.2,0,0.5,0.2,0.7c0.2,0.2,0.4,0.3,0.6,0.3h6.6
		l-8.5,11.6l1.5-9v0c0-0.2,0-0.5-0.2-0.7c-0.2-0.2-0.4-0.3-0.6-0.3h-7L37.8,24.6L37.8,24.6z"/>
</g>
<g class="st0">
	
		<linearGradient id="SVGID_00000123421468515946024070000009561492279859726517_" gradientUnits="userSpaceOnUse" x1="35" y1="3.2763" x2="35" y2="66.7237">
		<stop  offset="0" style="stop-color:#F64480"/>
		<stop  offset="1" style="stop-color:#FD7673"/>
	</linearGradient>
	<circle style="display:inline;fill:url(#SVGID_00000123421468515946024070000009561492279859726517_);" cx="35" cy="35" r="31.7"/>
	<g class="st4">
		<path class="st5" d="M20.1,20.6c-3.1,0-5.6,2.5-5.6,5.6v18.6c0,3.1,2.5,5.6,5.6,5.6h29.7c3.1,0,5.6-2.5,5.6-5.6V26.2
			c0-3.1-2.5-5.6-5.6-5.6H20.1z M18.3,26.7v18.1c0,1,0.8,1.9,1.9,1.9h29.7c1,0,1.9-0.8,1.9-1.9V26.7L38.4,37c-2,1.6-4.8,1.6-6.8,0
			L18.3,26.7z M48.7,24.3H21.3l12.6,9.8c0.7,0.5,1.6,0.5,2.3,0L48.7,24.3z"/>
	</g>
</g>
<g class="st0">
	
		<linearGradient id="SVGID_00000014621624527130821990000007403940257284232882_" gradientUnits="userSpaceOnUse" x1="35" y1="3.2763" x2="35" y2="66.7237">
		<stop  offset="0" style="stop-color:#0877ED"/>
		<stop  offset="1" style="stop-color:#4FB5FD"/>
	</linearGradient>
	<circle style="display:inline;fill:url(#SVGID_00000014621624527130821990000007403940257284232882_);" cx="35" cy="35" r="31.7"/>
	<path class="st2" d="M42.3,34.4c0-0.4-0.1-0.7-0.4-1c0,0-0.1-0.1-0.1-0.1c-0.5-0.4-1.3-0.4-1.9,0.1l-6.8,6.8
		c-0.3,0.3-0.4,0.6-0.4,1c0,0.3,0.1,0.6,0.3,0.9c0,0,0.1,0.1,0.1,0.1c0.5,0.5,1.4,0.5,2,0l6.8-6.8C42.2,35.2,42.3,34.8,42.3,34.4
		L42.3,34.4z"/>
	<path class="st2" d="M32.4,42.7C32.4,42.7,32.3,42.7,32.4,42.7c-0.4-0.5-0.6-1-0.6-1.6c0-0.6,0.3-1.2,0.7-1.7l1.6-1.6l-2.5-2.5
		l-3.4,3.4c-2.1-0.6-4.4-0.1-6,1.5c-2.4,2.4-2.4,6.2,0,8.5c2.4,2.4,6.2,2.4,8.5,0C32.4,47.2,32.9,44.9,32.4,42.7L32.4,42.7z
		 M28.7,46.7l-3,0.8l-2.2-2.2l0.8-3l3-0.8l2.2,2.2L28.7,46.7z"/>
	<path class="st2" d="M37.8,34.2l1.5-1.5c0.4-0.4,1-0.7,1.7-0.7c0.5,0,1.1,0.2,1.5,0.5c0,0,0.1,0,0.1,0.1c2.1,0.6,4.5,0,6.1-1.7
		c1.6-1.6,2.1-3.8,1.6-5.9L47.3,28l-3.4-0.9l-0.9-3.4l2.9-2.9c-2.2-0.6-4.7,0.1-6.3,2c-1.3,1.6-1.6,3.7-1.1,5.5l-3.3,3.3L37.8,34.2z
		"/>
	<path class="st2" d="M42.3,36.4l-6.2,6.2l6.8,6.8c1.7,1.7,4.5,1.7,6.2,0c1.7-1.7,1.7-4.5,0-6.2L42.3,36.4z M45.3,47.7
		c-0.1,0.1-0.2,0.1-0.3,0.1s-0.2,0-0.3-0.1l-5.4-5.4c-0.2-0.2-0.2-0.5,0-0.7c0.2-0.2,0.5-0.2,0.7,0l5.4,5.4
		C45.5,47.2,45.5,47.5,45.3,47.7L45.3,47.7z M47.4,45.6c-0.1,0.1-0.2,0.1-0.3,0.1c-0.1,0-0.2,0-0.3-0.1l-5.4-5.4
		c-0.2-0.2-0.2-0.5,0-0.7c0.2-0.2,0.5-0.2,0.7,0l5.4,5.4C47.6,45.1,47.6,45.4,47.4,45.6L47.4,45.6z"/>
	<path class="st2" d="M24.9,27.3l7.4,7.4l2.5,2.5l2.3-2.3L27.2,25l-1.5-2.9l-3.6-1.5l-1.6,1.6l1.3,3.8L24.9,27.3z"/>
</g>
<g class="st0">
	
		<linearGradient id="SVGID_00000023261302755349187370000017453719899201362569_" gradientUnits="userSpaceOnUse" x1="35" y1="3.2763" x2="35" y2="66.7237">
		<stop  offset="0" style="stop-color:#0877ED"/>
		<stop  offset="1" style="stop-color:#4FB5FD"/>
	</linearGradient>
	<circle style="display:inline;fill:url(#SVGID_00000023261302755349187370000017453719899201362569_);" cx="35" cy="35" r="31.7"/>
	<path class="st2" d="M48.9,41.8l-3.6-3.6c-0.7-0.7-1.6-1.1-2.5-1.1c-0.9,0-1.8,0.4-2.5,1.1L38.4,40c-0.1,0-0.2-0.1-0.3-0.1
		c-0.2-0.1-0.4-0.2-0.6-0.3c-1.9-1.2-3.6-2.8-5.3-4.8c-0.7-0.9-1.2-1.7-1.6-2.5c0.5-0.4,0.9-0.9,1.3-1.3c0.2-0.2,0.4-0.4,0.5-0.6
		c0.8-0.8,1.1-1.6,1.1-2.5c0-0.9-0.4-1.8-1.1-2.5l-1.8-1.8c-0.2-0.2-0.4-0.4-0.6-0.6l0,0c-0.4-0.4-0.8-0.8-1.2-1.2
		c-0.7-0.7-1.6-1.1-2.5-1.1c-0.9,0-1.8,0.4-2.5,1.1l-2.3,2.3c-0.9,0.9-1.4,2-1.5,3.3c-0.1,1.5,0.2,3.1,0.9,5
		c1.1,2.9,2.7,5.6,5.1,8.5c2.9,3.5,6.4,6.2,10.4,8.2l0,0c1.6,0.7,3.6,1.6,5.9,1.7h0c0.1,0,0.3,0,0.4,0c1.6,0,3-0.6,4.1-1.7
		c0,0,0,0,0.1-0.1c0.3-0.4,0.6-0.7,1-1.1l0.1-0.1c0.3-0.3,0.6-0.6,0.9-0.9c0.7-0.8,1.1-1.6,1.1-2.5C50,43.4,49.6,42.5,48.9,41.8
		L48.9,41.8z M22.5,27.4c0.1-0.7,0.3-1.2,0.8-1.7l2.2-2.2c0.2-0.2,0.5-0.4,0.7-0.4c0.3,0,0.5,0.2,0.7,0.4l0,0c0.3,0.3,0.7,0.6,1,1
		l0.2,0.2c0.1,0.1,0.2,0.2,0.3,0.3c0.1,0.1,0.2,0.2,0.3,0.3l1.8,1.8c0.2,0.2,0.4,0.5,0.4,0.8c0,0.3-0.2,0.6-0.4,0.8
		c-0.1,0.1-0.2,0.2-0.3,0.3c-0.1,0.1-0.2,0.2-0.3,0.3L30,29.3c-0.5,0.5-1,1-1.5,1.5l-0.1,0.1c-0.8,0.8-0.5,1.6-0.4,1.9
		c0,0,0,0,0,0.1l0,0c0.5,1.2,1.2,2.3,2.2,3.6l0,0c1.8,2.3,3.8,4,5.9,5.4c0.2,0.2,0.5,0.3,0.7,0.4c0,0,0.1,0,0.1,0.1l0,0
		c0.2,0.1,0.4,0.2,0.6,0.3l0.1,0c0,0,0,0,0.1,0c0.3,0.1,0.5,0.2,0.8,0.2c0.5,0,0.9-0.2,1.3-0.6L42,40c0.2-0.2,0.4-0.4,0.7-0.4
		c0.3,0,0.6,0.2,0.7,0.4l0,0l3.6,3.6c0.5,0.5,0.5,1,0,1.5l0,0c-0.3,0.3-0.5,0.5-0.8,0.8L46.2,46c-0.4,0.4-0.8,0.8-1.2,1.3
		c-0.6,0.6-1.3,0.9-2.2,0.9c-0.1,0-0.2,0-0.3,0c-1.9-0.1-3.7-0.9-5-1.5c-3.7-1.8-6.9-4.3-9.6-7.5c-2.2-2.7-3.7-5.1-4.7-7.8
		C22.7,29.8,22.5,28.6,22.5,27.4L22.5,27.4z"/>
</g>
<g class="st0">
	
		<linearGradient id="SVGID_00000103975434470072334390000008908085048851520153_" gradientUnits="userSpaceOnUse" x1="35" y1="3.2763" x2="35" y2="66.7237">
		<stop  offset="0" style="stop-color:#FEBF32"/>
		<stop  offset="1" style="stop-color:#F06814"/>
	</linearGradient>
	<circle style="display:inline;fill:url(#SVGID_00000103975434470072334390000008908085048851520153_);" cx="35" cy="35" r="31.7"/>
	<path class="st9" d="M36.2,40.1c-2,2.1-3.2,5.5-3.4,10.2c-4.9-1.3-7.9-5.3-7.9-10c0-7.9,6.4-9.6,5.6-19.8c1.4,0,7,3.2,8.1,10.8
		c1.1-1.1,1.7-4.6,1.4-6.1c5,3.7,7.6,8.5,7.6,13.9c0,5.3-3,9.8-7.9,11.2C39.4,45.6,38.3,42.2,36.2,40.1L36.2,40.1z"/>
</g>
<g>
	
		<linearGradient id="SVGID_00000116201914767725536130000006639249687258135458_" gradientUnits="userSpaceOnUse" x1="35" y1="3.2763" x2="35" y2="66.7237">
		<stop  offset="0" style="stop-color:#FEBF32"/>
		<stop  offset="1" style="stop-color:#F06814"/>
	</linearGradient>
	<circle style="fill:url(#SVGID_00000116201914767725536130000006639249687258135458_);" cx="35" cy="35" r="31.7"/>
	<g>
		<g>
			<path class="st11" d="M35,32.5c1,0,1.9-0.4,2.6-1.1c0.7-0.7,1.1-1.6,1.1-2.6c0-1-0.4-1.9-1.1-2.6c-0.7-0.7-1.6-1.1-2.6-1.1
				c-1,0-1.9,0.4-2.6,1.1c-0.7,0.7-1.1,1.6-1.1,2.6c0,1,0.4,1.9,1.1,2.6C33.1,32.1,34,32.5,35,32.5L35,32.5z M35,27.1L35,27.1
				c0.5,0,0.9,0.2,1.2,0.5c0.3,0.3,0.5,0.7,0.5,1.2c0,0.5-0.2,0.9-0.5,1.2c-0.3,0.3-0.8,0.5-1.2,0.5c-0.5,0-0.9-0.2-1.2-0.5
				c-0.3-0.3-0.5-0.8-0.5-1.2c0-0.4,0.2-0.9,0.5-1.2C34.1,27.3,34.6,27.1,35,27.1L35,27.1z"/>
			<path class="st11" d="M46.5,37.7c-0.1-0.2-0.2-0.4-0.4-0.5C46,37.1,45.8,37,45.6,37h-4.8l1.3-1.7v0c1.3-1.8,2-3.9,1.9-6.1
				c-0.3-4.8-4.2-8.5-8.9-8.5c-4.7,0-8.6,3.8-8.9,8.5c-0.1,2.2,0.5,4.4,1.9,6.1l1.3,1.7l-4.6,0c-0.2,0-0.4,0.1-0.6,0.2
				c-0.2,0.1-0.3,0.3-0.4,0.5L19.9,49c-0.1,0.3-0.1,0.6,0.1,0.9c0.2,0.3,0.5,0.4,0.8,0.4h28.3c0.3,0,0.6-0.1,0.8-0.4
				c0.2-0.2,0.2-0.6,0.1-0.9L46.5,37.7z M28.1,29.3c0.2-3.3,2.9-6.7,7-6.7c4.1,0,6.8,3.4,7,6.7c0.1,1.7-0.4,3.5-1.5,4.8l-5.5,7.3
				l-5.5-7.3C28.6,32.7,28,31,28.1,29.3L28.1,29.3z M25.4,38.9h5.4l3.5,4.7c0.2,0.2,0.5,0.4,0.8,0.4c0.3,0,0.6-0.1,0.8-0.4l3.5-4.7
				h5.5l0.6,2.1h-5.6V43h6.2l0.5,1.6H35.2c-0.3,0-0.5,0.1-0.7,0.3c-0.2,0.2-0.3,0.4-0.3,0.7v2.9h-3l0.3-5.1c0-0.3-0.1-0.5-0.3-0.7
				c-0.2-0.2-0.4-0.3-0.7-0.3h-6.2L25.4,38.9z M23.6,44.2h5.8l-0.2,4.2h-7L23.6,44.2z M36.1,48.4v-1.9h11.1l0.6,1.9H36.1z"/>
		</g>
	</g>
</g>
<g class="st0">
	
		<linearGradient id="SVGID_00000018201453469417046940000000356028949554136511_" gradientUnits="userSpaceOnUse" x1="35" y1="0.5" x2="35" y2="69.5">
		<stop  offset="0" style="stop-color:#800080"/>
		<stop  offset="1" style="stop-color:#FFC0CB"/>
	</linearGradient>
	<circle style="display:inline;fill:url(#SVGID_00000018201453469417046940000000356028949554136511_);" cx="35" cy="35" r="34.5"/>
	<path class="st2" d="M18.5,44.6C18.5,44.6,18.5,44.6,18.5,44.6c0,0.1,0,0.1,0,0.2c0,0,0,0,0,0.1c0,0.1,0.1,0.1,0.1,0.2
		c0.7,0.9,1.4,1.9,2.1,2.8c1,1.3,2,2.6,2.9,3.9c0.1,0.2,0.3,0.3,0.5,0.3h0h0l17.3,0h0c0.2,0,0.4-0.1,0.5-0.2
		c0.1-0.1,0.2-0.3,0.2-0.5l-0.5-28c0-0.4-0.3-0.7-0.7-0.7h-3.6l0-1.4c0-0.4-0.3-0.7-0.7-0.7h-3.2c-0.3-1.2-1.6-2.1-3-2.1
		c-1.5,0-2.7,0.9-3,2.1h-3.2c-0.4,0-0.7,0.3-0.7,0.7v1.4H19c-0.2,0-0.4,0.1-0.5,0.2c-0.1,0.1-0.2,0.3-0.2,0.5L18.5,44.6z M20.6,45.2
		H24l-0.3,4.2l-3-4.1C20.6,45.3,20.6,45.3,20.6,45.2L20.6,45.2z M24.9,22H28c0.4,0,0.7-0.3,0.7-0.7c0-0.8,0.8-1.4,1.8-1.4
		c1,0,1.8,0.6,1.8,1.4c0,0.4,0.3,0.7,0.7,0.7h3.2v1.4c0,0,0,0,0,0c0,0,0,0,0,0v1.4H24.9L24.9,22z M23.5,24v1.4
		c0,0.4,0.3,0.7,0.7,0.7h12.6c0.4,0,0.7-0.3,0.7-0.7V24h3l0.4,26.6l-15.9,0l0.4-6c0-0.2-0.1-0.4-0.2-0.5c-0.1-0.1-0.3-0.2-0.5-0.2
		h-4.8L19.7,24L23.5,24z"/>
	<path class="st2" d="M22.9,33.7H38c0.4,0,0.7-0.3,0.7-0.7c0-0.4-0.3-0.7-0.7-0.7H22.9c-0.4,0-0.7,0.3-0.7,0.7
		C22.3,33.4,22.6,33.7,22.9,33.7L22.9,33.7z"/>
	<path class="st2" d="M22.9,29.5H38c0.4,0,0.7-0.3,0.7-0.7c0-0.4-0.3-0.7-0.7-0.7H22.9c-0.4,0-0.7,0.3-0.7,0.7
		C22.3,29.2,22.6,29.5,22.9,29.5L22.9,29.5z"/>
	<path class="st2" d="M22.9,37.9H38c0.4,0,0.7-0.3,0.7-0.7c0-0.4-0.3-0.7-0.7-0.7H22.9c-0.4,0-0.7,0.3-0.7,0.7
		C22.3,37.6,22.6,37.9,22.9,37.9L22.9,37.9z"/>
	<path class="st2" d="M38,40.7H22.9c-0.4,0-0.7,0.3-0.7,0.7s0.3,0.7,0.7,0.7H38c0.4,0,0.7-0.3,0.7-0.7S38.4,40.7,38,40.7z"/>
	<path class="st2" d="M33,22.7H28c-0.3,0-0.5,0.2-0.6,0.4c0,0.1-0.1,0.2-0.1,0.3c0,0.4,0.3,0.7,0.7,0.7H33c0.2,0,0.4-0.1,0.5-0.2
		c0.1-0.1,0.2-0.3,0.2-0.5C33.7,23,33.4,22.7,33,22.7L33,22.7z"/>
	<path class="st2" d="M52.3,29.9v-1.1c0-2.3-1.4-4.2-3.1-4.2c-1.7,0-3.1,1.8-3.1,4.2v16.2c0,0,0,0,0,0c0,0.1,0,0.1,0,0.2l2.4,6.4
		c0.1,0.3,0.4,0.4,0.6,0.4c0.3,0,0.5-0.2,0.6-0.4l2.4-6.4c0-0.1,0-0.1,0-0.2c0,0,0,0,0,0V29.9z M47.5,30.5h3.5v13.7h-3.5V30.5z
		 M47.5,28.8c0-1.5,0.8-2.8,1.7-2.8s1.7,1.3,1.7,2.8v0.4h-3.5V28.8z M49.2,49.4l-1.4-3.8h2.9L49.2,49.4z"/>
	<path class="st2" d="M49.2,34.4c-0.4,0-0.7,0.3-0.7,0.7v4.6c0,0.4,0.3,0.7,0.7,0.7s0.7-0.3,0.7-0.7v-4.6
		C49.9,34.7,49.6,34.4,49.2,34.4z"/>
</g>
</svg>
