<?xml version="1.0" encoding="utf-8"?>
<!-- Generator: Adobe Illustrator 25.4.1, SVG Export Plug-In . SVG Version: 6.00 Build 0)  -->
<svg version="1.1" id="Capa_1" xmlns="http://www.w3.org/2000/svg" xmlns:xlink="http://www.w3.org/1999/xlink" x="0px" y="0px"
	 viewBox="0 0 70 70" style="enable-background:new 0 0 70 70;" xml:space="preserve">
<style type="text/css">
	.st0{display:none;}
	.st1{display:inline;fill:url(#SVGID_1_);}
	.st2{display:inline;fill:#FFFFFF;}
	.st3{fill:url(#SVGID_00000139270657372954282810000007554777960910754745_);}
	.st4{fill:#FFFFFF;}
	.st5{display:inline;fill:url(#SVGID_00000171720170863275945900000007261629306516544912_);}
	.st6{display:inline;fill-rule:evenodd;clip-rule:evenodd;fill:#FFFFFF;}
	.st7{display:inline;fill:url(#SVGID_00000165927590371310515470000001316232095397539993_);}
</style>
<g class="st0">
	<linearGradient id="SVGID_1_" gradientUnits="userSpaceOnUse" x1="35" y1="3.2763" x2="35" y2="66.7237">
		<stop  offset="0" style="stop-color:#F64480"/>
		<stop  offset="1" style="stop-color:#FD7673"/>
	</linearGradient>
	<circle class="st1" cx="35" cy="35" r="31.7"/>
	<path class="st2" d="M39,20.6c-0.2,0-0.4,0.2-0.5,0.3l-12,15.7c-0.2,0.2-0.2,0.6-0.1,0.9c0.1,0.3,0.4,0.5,0.7,0.5h7.7L33,49.4v0
		c-0.1,0.4,0.1,0.8,0.5,0.9c0.4,0.2,0.8,0,1-0.3L46,34.3h0c0.2-0.3,0.2-0.6,0.1-0.9c-0.1-0.3-0.4-0.5-0.7-0.5H38l1.9-11.4h0
		c0-0.3,0-0.5-0.2-0.7C39.5,20.6,39.3,20.6,39,20.6L39,20.6z M37.8,24.6l-1.5,9.1c0,0.2,0,0.5,0.2,0.7c0.2,0.2,0.4,0.3,0.6,0.3h6.6
		l-8.5,11.6l1.5-9v0c0-0.2,0-0.5-0.2-0.7c-0.2-0.2-0.4-0.3-0.6-0.3h-7L37.8,24.6L37.8,24.6z"/>
</g>
<g>
	
		<linearGradient id="SVGID_00000011024442080892452860000000879667241878200462_" gradientUnits="userSpaceOnUse" x1="35" y1="3.2763" x2="35" y2="66.7237">
		<stop  offset="0" style="stop-color:#0877ED"/>
		<stop  offset="1" style="stop-color:#4FB5FD"/>
	</linearGradient>
	<circle style="fill:url(#SVGID_00000011024442080892452860000000879667241878200462_);" cx="35" cy="35" r="31.7"/>
	<path class="st4" d="M42.3,34.4c0-0.4-0.1-0.7-0.4-1c0,0-0.1-0.1-0.1-0.1c-0.5-0.4-1.3-0.4-1.9,0.1l-6.8,6.8
		c-0.3,0.3-0.4,0.6-0.4,1c0,0.3,0.1,0.6,0.3,0.9c0,0,0.1,0.1,0.1,0.1c0.5,0.5,1.4,0.5,2,0l6.8-6.8C42.2,35.2,42.3,34.8,42.3,34.4
		L42.3,34.4z"/>
	<path class="st4" d="M32.4,42.7C32.4,42.7,32.3,42.7,32.4,42.7c-0.4-0.5-0.6-1-0.6-1.6c0-0.6,0.3-1.2,0.7-1.7l1.6-1.6l-2.5-2.5
		l-3.4,3.4c-2.1-0.6-4.4-0.1-6,1.5c-2.4,2.4-2.4,6.2,0,8.5c2.4,2.4,6.2,2.4,8.5,0C32.4,47.2,32.9,44.9,32.4,42.7L32.4,42.7z
		 M28.7,46.7l-3,0.8l-2.2-2.2l0.8-3l3-0.8l2.2,2.2L28.7,46.7z"/>
	<path class="st4" d="M37.8,34.2l1.5-1.5c0.4-0.4,1-0.7,1.7-0.7c0.5,0,1.1,0.2,1.5,0.5c0,0,0.1,0,0.1,0.1c2.1,0.6,4.5,0,6.1-1.7
		c1.6-1.6,2.1-3.8,1.6-5.9L47.3,28l-3.4-0.9l-0.9-3.4l2.9-2.9c-2.2-0.6-4.7,0.1-6.3,2c-1.3,1.6-1.6,3.7-1.1,5.5l-3.3,3.3L37.8,34.2z
		"/>
	<path class="st4" d="M42.3,36.4l-6.2,6.2l6.8,6.8c1.7,1.7,4.5,1.7,6.2,0c1.7-1.7,1.7-4.5,0-6.2L42.3,36.4z M45.3,47.7
		c-0.1,0.1-0.2,0.1-0.3,0.1s-0.2,0-0.3-0.1l-5.4-5.4c-0.2-0.2-0.2-0.5,0-0.7c0.2-0.2,0.5-0.2,0.7,0l5.4,5.4
		C45.5,47.2,45.5,47.5,45.3,47.7L45.3,47.7z M47.4,45.6c-0.1,0.1-0.2,0.1-0.3,0.1c-0.1,0-0.2,0-0.3-0.1l-5.4-5.4
		c-0.2-0.2-0.2-0.5,0-0.7c0.2-0.2,0.5-0.2,0.7,0l5.4,5.4C47.6,45.1,47.6,45.4,47.4,45.6L47.4,45.6z"/>
	<path class="st4" d="M24.9,27.3l7.4,7.4l2.5,2.5l2.3-2.3L27.2,25l-1.5-2.9l-3.6-1.5l-1.6,1.6l1.3,3.8L24.9,27.3z"/>
</g>
<g class="st0">
	
		<linearGradient id="SVGID_00000070838282012826730690000017113695673213660552_" gradientUnits="userSpaceOnUse" x1="35" y1="3.2763" x2="35" y2="66.7237">
		<stop  offset="0" style="stop-color:#FEBF32"/>
		<stop  offset="1" style="stop-color:#F06814"/>
	</linearGradient>
	<circle style="display:inline;fill:url(#SVGID_00000070838282012826730690000017113695673213660552_);" cx="35" cy="35" r="31.7"/>
	<path class="st6" d="M36.2,40.1c-2,2.1-3.2,5.5-3.4,10.2c-4.9-1.3-7.9-5.3-7.9-10c0-7.9,6.4-9.6,5.6-19.8c1.4,0,7,3.2,8.1,10.8
		c1.1-1.1,1.7-4.6,1.4-6.1c5,3.7,7.6,8.5,7.6,13.9c0,5.3-3,9.8-7.9,11.2C39.4,45.6,38.3,42.2,36.2,40.1L36.2,40.1z"/>
</g>
<g class="st0">
	
		<linearGradient id="SVGID_00000181068164467244702890000008426220214938391449_" gradientUnits="userSpaceOnUse" x1="35" y1="0.5" x2="35" y2="69.5">
		<stop  offset="0" style="stop-color:#800080"/>
		<stop  offset="1" style="stop-color:#FFC0CB"/>
	</linearGradient>
	<circle style="display:inline;fill:url(#SVGID_00000181068164467244702890000008426220214938391449_);" cx="35" cy="35" r="34.5"/>
	<path class="st2" d="M18.5,44.6C18.5,44.6,18.5,44.6,18.5,44.6c0,0.1,0,0.1,0,0.2c0,0,0,0,0,0.1c0,0.1,0.1,0.1,0.1,0.2
		c0.7,0.9,1.4,1.9,2.1,2.8c1,1.3,2,2.6,2.9,3.9c0.1,0.2,0.3,0.3,0.5,0.3h0h0l17.3,0h0c0.2,0,0.4-0.1,0.5-0.2
		c0.1-0.1,0.2-0.3,0.2-0.5l-0.5-28c0-0.4-0.3-0.7-0.7-0.7h-3.6l0-1.4c0-0.4-0.3-0.7-0.7-0.7h-3.2c-0.3-1.2-1.6-2.1-3-2.1
		c-1.5,0-2.7,0.9-3,2.1h-3.2c-0.4,0-0.7,0.3-0.7,0.7v1.4H19c-0.2,0-0.4,0.1-0.5,0.2c-0.1,0.1-0.2,0.3-0.2,0.5L18.5,44.6z M20.6,45.2
		H24l-0.3,4.2l-3-4.1C20.6,45.3,20.6,45.3,20.6,45.2L20.6,45.2z M24.9,22H28c0.4,0,0.7-0.3,0.7-0.7c0-0.8,0.8-1.4,1.8-1.4
		c1,0,1.8,0.6,1.8,1.4c0,0.4,0.3,0.7,0.7,0.7h3.2v1.4c0,0,0,0,0,0c0,0,0,0,0,0v1.4H24.9L24.9,22z M23.5,24v1.4
		c0,0.4,0.3,0.7,0.7,0.7h12.6c0.4,0,0.7-0.3,0.7-0.7V24h3l0.4,26.6l-15.9,0l0.4-6c0-0.2-0.1-0.4-0.2-0.5c-0.1-0.1-0.3-0.2-0.5-0.2
		h-4.8L19.7,24L23.5,24z"/>
	<path class="st2" d="M22.9,33.7H38c0.4,0,0.7-0.3,0.7-0.7c0-0.4-0.3-0.7-0.7-0.7H22.9c-0.4,0-0.7,0.3-0.7,0.7
		C22.3,33.4,22.6,33.7,22.9,33.7L22.9,33.7z"/>
	<path class="st2" d="M22.9,29.5H38c0.4,0,0.7-0.3,0.7-0.7c0-0.4-0.3-0.7-0.7-0.7H22.9c-0.4,0-0.7,0.3-0.7,0.7
		C22.3,29.2,22.6,29.5,22.9,29.5L22.9,29.5z"/>
	<path class="st2" d="M22.9,37.9H38c0.4,0,0.7-0.3,0.7-0.7c0-0.4-0.3-0.7-0.7-0.7H22.9c-0.4,0-0.7,0.3-0.7,0.7
		C22.3,37.6,22.6,37.9,22.9,37.9L22.9,37.9z"/>
	<path class="st2" d="M38,40.7H22.9c-0.4,0-0.7,0.3-0.7,0.7s0.3,0.7,0.7,0.7H38c0.4,0,0.7-0.3,0.7-0.7S38.4,40.7,38,40.7z"/>
	<path class="st2" d="M33,22.7H28c-0.3,0-0.5,0.2-0.6,0.4c0,0.1-0.1,0.2-0.1,0.3c0,0.4,0.3,0.7,0.7,0.7H33c0.2,0,0.4-0.1,0.5-0.2
		c0.1-0.1,0.2-0.3,0.2-0.5C33.7,23,33.4,22.7,33,22.7L33,22.7z"/>
	<path class="st2" d="M52.3,29.9v-1.1c0-2.3-1.4-4.2-3.1-4.2c-1.7,0-3.1,1.8-3.1,4.2v16.2c0,0,0,0,0,0c0,0.1,0,0.1,0,0.2l2.4,6.4
		c0.1,0.3,0.4,0.4,0.6,0.4c0.3,0,0.5-0.2,0.6-0.4l2.4-6.4c0-0.1,0-0.1,0-0.2c0,0,0,0,0,0V29.9z M47.5,30.5h3.5v13.7h-3.5V30.5z
		 M47.5,28.8c0-1.5,0.8-2.8,1.7-2.8s1.7,1.3,1.7,2.8v0.4h-3.5V28.8z M49.2,49.4l-1.4-3.8h2.9L49.2,49.4z"/>
	<path class="st2" d="M49.2,34.4c-0.4,0-0.7,0.3-0.7,0.7v4.6c0,0.4,0.3,0.7,0.7,0.7s0.7-0.3,0.7-0.7v-4.6
		C49.9,34.7,49.6,34.4,49.2,34.4z"/>
</g>
</svg>
